PathFileType	4	(X/Y/Z)	65_2_20_p1_0-350_filt_butterworth.trc
DataRate	CameraRate	NumFrames	NumMarkers	Units	OrigDataRate	OrigDataStartFrame	OrigNumFrames
59.0	59.0	6	27	m	59.0	131	350
Frame#	Time	RHip			RKnee			RAnkle			RBigToe			RSmallToe			RHeel			LHip			LKnee			LAnkle			LBigToe			LSmallToe			LHeel			Neck			Head			Nose			RShoulder			RElbow			RWrist			RThumb			RIndex			RPinky			LShoulder			LElbow			LWrist			LThumb			LIndex			LPinky			
		X1	Y1	Z1	X2	Y2	Z2	X3	Y3	Z3	X4	Y4	Z4	X5	Y5	Z5	X6	Y6	Z6	X7	Y7	Z7	X8	Y8	Z8	X9	Y9	Z9	X10	Y10	Z10	X11	Y11	Z11	X12	Y12	Z12	X13	Y13	Z13	X14	Y14	Z14	X15	Y15	Z15	X16	Y16	Z16	X17	Y17	Z17	X18	Y18	Z18	X19	Y19	Z19	X20	Y20	Z20	X21	Y21	Z21	X22	Y22	Z22	X23	Y23	Z23	X24	Y24	Z24	X25	Y25	Z25	X26	Y26	Z26	X27	Y27	Z27	
131	2.2203389830508478	0.4345149763905771	0.615249784862218	0.2923358798285809	0.39556253111122514	0.8604404522990158	0.7263945720369868	0.3401949615161037	1.0198905470697777	1.1279650122011213	0.301605471734255	0.7686830500810806	1.2014814048126417	0.3696931242350992	0.8118486651258495	1.202020264515396	0.29300869796158246	1.1431592774889914	1.196154796089282	0.27269852363626623	0.7713632035135547	0.25784726341706843	0.16222355989239917	0.8959343618222539	0.6893270543190912	0.1073692618679391	1.0161219356736164	1.0921239120355781	0.1028569230462017	0.7886002935957849	1.169199934208721	0.032196765207226155	0.8759756433275845	1.161067534076724	0.12031614404526535	1.0904361926722137	1.144821867257725	0.39942336189726335	0.46320806095632117	-0.33235518173173084	0.305716241579804	0.290292710298306	-0.529686975091569	0.2609829031518689	0.3425055767960231	-0.4110334911239484	0.5151566537360147	0.379092977751639	-0.20419316352408093	0.45490773414161806	0.4115765934324863	0.09883598255688196	0.27786900297303085	0.5119166276270632	0.2740773073252382	0.23232392396384577	0.5295390443075726	0.3722964361037966	0.2526276140926817	0.5025186749688821	0.414066925834582	0.2713491442922659	0.5706178369723569	0.4262586940420255	0.32907606974154163	0.585525394923893	-0.34614037024850197	0.09746273584080195	0.5744440939334524	-0.3622518374576068	0.20666710029042407	0.39252850099670183	-0.49590355863409663	0.20721726384077477	0.23403197007841897	-0.5373699944743662	0.19202682220592776	0.24224760353616104	-0.538032203294816	0.17879085360926647	0.29493134990059033	-0.5377389540389426
132	2.23728813559322	0.4345110339614576	0.6151627958001729	0.2923404335138192	0.3967766134954711	0.8577728088521721	0.725865432845783	0.34011465143169545	1.0198015207596713	1.1289297541148402	0.3012566327267766	0.7644988783675524	1.200252705027157	0.367992412672979	0.8105726189765494	1.2008575596158242	0.2926080584800389	1.1417119879952768	1.1959297455676676	0.27228049632452883	0.7743392107341852	0.2567538145724809	0.16245900782122633	0.8951595513292094	0.6891197023324547	0.1083798511153739	1.0158107809709491	1.0920205647487176	0.10286800164926839	0.7892632463533986	1.1682323518510962	0.03220236352365801	0.8761680132287804	1.1610834580122722	0.12027906102501648	1.0908918988319825	1.1449289728575391	0.3993046664387424	0.4633657703719162	-0.33120835206445204	0.3033893984132558	0.2939954776926524	-0.530402607501359	0.25992036958017106	0.34254401200208473	-0.4094592049872226	0.5130894175424199	0.37634428386202456	-0.2028647109695082	0.4557699601962888	0.408312536842469	0.09909024059250307	0.2806757491609715	0.5208047156293112	0.27739069007111217	0.2407148734036786	0.5295564505930817	0.37583145120076106	0.2555557050202122	0.5144746587229047	0.4203268630673072	0.27321213512945897	0.5759021699841848	0.4299437689426744	0.3289536043197664	0.5853931789219347	-0.3460925802683498	0.09704803930125712	0.5752146074803114	-0.3625246763605386	0.20507581941742506	0.39227114114879236	-0.49588525803924155	0.20690234701102295	0.23051528313161362	-0.5359634399932055	0.19005854861142718	0.24476389976045915	-0.539162580226203	0.1788017628390041	0.29507775906537914	-0.5378068580287999
133	2.254237288135593	0.4343330643946625	0.6149096042246981	0.2922853085502234	0.39756589120557684	0.8538824258909576	0.7253556535647361	0.34012280674030476	1.020080492742983	1.1303665066597306	0.30123221117358046	0.7627302110406161	1.199843823624011	0.3673608273356207	0.8098593825932185	1.1998705767782467	0.2919941624166102	1.140524059780919	1.1949551887338001	0.27176978523091927	0.7784005194273356	0.2562710063248481	0.16278554499781533	0.8946908214833217	0.6890702762830312	0.10896313056309614	1.0154457410881967	1.0915221267087392	0.10283940419295688	0.7899244915266134	1.1679457728729967	0.03219662770212005	0.8762637743579643	1.161086871157005	0.12026223647575339	1.091304664796685	1.1455853296680907	0.39880199159396235	0.4637292754086938	-0.33039863812718795	0.2992629484607948	0.2969080384542855	-0.5316339988975898	0.2585047361883221	0.3423970974170547	-0.4083949279120119	0.5114183770228895	0.37505535656694844	-0.2023816113831726	0.456518894184231	0.40710292924400515	0.09922770272341166	0.2827144133139553	0.5241904275320554	0.2814210787170478	0.24957534318701569	0.5312253738396917	0.38104311044148675	0.25983667824350565	0.528390038905149	0.4264509553817869	0.2751763001801319	0.5781620624762283	0.43425954891657215	0.3284025766658752	0.5866712102361691	-0.3462069986331725	0.09581664907622262	0.5782277867694243	-0.3632449401619103	0.203466282577315	0.3905097562316469	-0.4957235458673755	0.20669698031900552	0.22784938986652425	-0.5351582755096096	0.18832690716987538	0.24590142166363183	-0.5399577394506243	0.1786930349333276	0.2951355758782497	-0.5380198991704872
134	2.2711864406779663	0.43415510449866535	0.6145626891642084	0.29221507666354946	0.39794081990709534	0.8508273328132638	0.7240880715623365	0.3402135253693619	1.0205888028538177	1.1317457380616722	0.30121803316030266	0.762492065843637	1.199701718505145	0.36732711745248375	0.8100402424106292	1.1997159661594594	0.2916216905374682	1.1401169337177413	1.1939368413390261	0.271531117294733	0.7813792592605345	0.2561616951894168	0.1633807839433872	0.8946042760090336	0.6891561676604281	0.10890227521127357	1.0150383462565191	1.0903888232796426	0.10283418069524083	0.790114640378658	1.1679490897451705	0.03219249440669989	0.8761874109155019	1.1610598292136982	0.12031216246886903	1.091477391527253	1.1466149995216544	0.397640886468828	0.4637355673560255	-0.3301300987065042	0.29382839809601174	0.29908100773782675	-0.5330461471885819	0.25742093089119467	0.34228594679736674	-0.4079470285702986	0.5104736320605132	0.3749671062542871	-0.20242427178508182	0.45758211981299646	0.40727909526614353	0.09930256228308623	0.2846137782985115	0.5243886635583774	0.2858412981378158	0.25681468910177324	0.5336419039601527	0.3879187533233325	0.26499474430816516	0.5415353367049578	0.4317649155681419	0.27910152298156454	0.5777418776836829	0.43840912087568495	0.32718962851313	0.5907010381764441	-0.34649072078561693	0.09372769000646075	0.5830082314779923	-0.3644397966272869	0.20180975611232757	0.38697272376574104	-0.49567437590285857	0.20670644920035708	0.22667779350946737	-0.5352648675840249	0.18729230275372916	0.2460025037278233	-0.5406771506625265	0.1783458816848153	0.2950622014498197	-0.5384538182475054
135	2.288135593220339	0.43415943167374715	0.6145598677825856	0.2921426084921458	0.39769271783261895	0.8502493065580528	0.7224568178196211	0.3403261092861888	1.0210515013041805	1.132713570114784	0.300884373707924	0.7625379306760957	1.1989181661197985	0.36751670578212137	0.8109251194168369	1.2006990757392766	0.29147492926864965	1.1407450503053411	1.1933363878073124	0.2716108403299319	0.7822598127752347	0.2561611244056724	0.16421686952354403	0.8947979046443094	0.6893074694638925	0.10838982593744648	1.0144295773425775	1.0888853566757166	0.10298936439041413	0.789740252180524	1.1676068231188224	0.03220324912844151	0.8759951011788825	1.161007079932312	0.12043201627152189	1.0917268456163807	1.1476768208505912	0.3958410434972668	0.4624713564194833	-0.3300149527309008	0.2885390838160897	0.3020105969343731	-0.5340373251162304	0.25701008772721373	0.34221055931375965	-0.4080474100327132	0.5098629483720731	0.37545166899618515	-0.2025220041856239	0.4589214959197968	0.4077834293696236	0.09936480360857401	0.28713619847849947	0.5240815555691657	0.2896896197308035	0.26213756297882035	0.5361228149818963	0.3949731800221951	0.2712781968534496	0.5532500912891294	0.4363316199462779	0.2859443947110659	0.5768591981616182	0.4416468007638471	0.32558208233243413	0.5973682147575325	-0.34670704203173686	0.09106019344329776	0.5884851721233437	-0.3661707478889801	0.20014110360900544	0.38216219853574285	-0.4959859937777584	0.20685284737664975	0.22631777000308878	-0.5361890505677105	0.18703096363055416	0.24563513929953884	-0.5413269976439186	0.17772093513648723	0.29477742659122186	-0.5390812199760573
136	2.305084745762712	0.434663358717148	0.6158168108317219	0.29208506435049786	0.3965620842020865	0.8522576212072992	0.7217171965858102	0.3403965335945514	1.0212430788684044	1.1331297263303706	0.3001312817172979	0.7622782606239462	1.1971456908489024	0.3680647619768544	0.8118152752416248	1.2018843309690432	0.291451347126952	1.142286636853139	1.1933768431641574	0.2717768210092817	0.7819670919078763	0.2562299765776864	0.1654285955709723	0.895237343829315	0.6895037798464194	0.10783925374089245	1.0136974966703465	1.0876826575070366	0.10338880676808315	0.7889895389629463	1.1665602443122172	0.03222732348681995	0.8758032368451912	1.1609452383218049	0.12054929318242989	1.0923573064868422	1.1482855612037954	0.3938157468838192	0.459330414983826	-0.329617560249765	0.2843387479073298	0.305728183228627	-0.5342951216762952	0.2570582338097544	0.3420506964883283	-0.40877780892220744	0.5086404111328213	0.37593230427994906	-0.2024244232900602	0.45996305229348394	0.40809268289223094	0.09940354795232229	0.29057858120223146	0.5243789836638252	0.2927236534304604	0.2659658843577166	0.5394291939498507	0.3998590681244206	0.27893018821262094	0.5635875266357584	0.44034087573639646	0.29471947889474515	0.5765712214213129	0.44406686174108234	0.3242619138969278	0.604724256332304	-0.3467606809268042	0.08814662359193298	0.5944500125583001	-0.36868327085433017	0.1983735730987643	0.37719241265201886	-0.4968371720442762	0.20707399324939796	0.22602027361813246	-0.5376487032925803	0.1873999832370677	0.24507989970902458	-0.5418533054012042	0.17705017977706802	0.29429588752407143	-0.539642805735927
